<svg xmlns="http://www.w3.org/2000/svg" xmlns:xlink="http://www.w3.org/1999/xlink" viewBox="28.05099868774414 -36.63699913024902 356.1560363769531 203.34799194335938" width="350.2921597338979" height="200"><path d="M 137.059,40.719 C 134.324,40.522 134.322,40.598 131.586,40.477" stroke-width="5.511" stroke="black" fill="none" stroke-linecap="round"></path><path d="M 131.586,40.477 C 126.980,40.477 126.982,40.401 122.375,40.477" stroke-width="4.681" stroke="black" fill="none" stroke-linecap="round"></path><path d="M 122.375,40.477 C 119.691,40.452 119.691,40.477 117.008,40.477" stroke-width="4.389" stroke="black" fill="none" stroke-linecap="round"></path><path d="M 117.008,40.477 C 113.992,40.223 114.029,40.504 111.051,40.582" stroke-width="4.182" stroke="black" fill="none" stroke-linecap="round"></path><path d="M 111.051,40.582 C 107.899,40.921 107.983,40.957 104.988,41.945" stroke-width="4.138" stroke="black" fill="none" stroke-linecap="round"></path><path d="M 104.988,41.945 C 101.993,43.132 101.995,42.999 99.242,44.738" stroke-width="4.103" stroke="black" fill="none" stroke-linecap="round"></path><path d="M 99.242,44.738 C 96.430,46.395 96.454,46.366 93.910,48.414" stroke-width="4.033" stroke="black" fill="none" stroke-linecap="round"></path><path d="M 93.910,48.414 C 91.689,50.343 91.627,50.244 89.637,52.438" stroke-width="4.090" stroke="black" fill="none" stroke-linecap="round"></path><path d="M 89.637,52.438 C 87.709,54.523 87.652,54.464 85.836,56.656" stroke-width="4.219" stroke="black" fill="none" stroke-linecap="round"></path><path d="M 85.836,56.656 C 83.818,58.697 83.955,58.798 82.129,60.988" stroke-width="4.168" stroke="black" fill="none" stroke-linecap="round"></path><path d="M 82.129,60.988 C 79.309,64.600 79.439,64.637 77.078,68.535" stroke-width="4.354" stroke="black" fill="none" stroke-linecap="round"></path><path d="M 77.078,68.535 C 75.243,71.465 75.440,71.426 74.391,74.641" stroke-width="4.577" stroke="black" fill="none" stroke-linecap="round"></path><path d="M 74.391,74.641 C 73.588,77.479 73.686,77.265 73.965,80.137" stroke-width="4.909" stroke="black" fill="none" stroke-linecap="round"></path><path d="M 73.965,80.137 C 74.121,83.133 74.307,82.553 75.828,84.789" stroke-width="5.050" stroke="black" fill="none" stroke-linecap="round"></path><path d="M 75.828,84.789 C 79.232,87.780 78.704,87.580 83.129,89.031" stroke-width="5.006" stroke="black" fill="none" stroke-linecap="round"></path><path d="M 83.129,89.031 C 86.337,89.164 86.092,89.983 89.547,89.195" stroke-width="4.999" stroke="black" fill="none" stroke-linecap="round"></path><path d="M 89.547,89.195 C 94.842,89.100 94.839,89.246 100.133,89.195" stroke-width="4.457" stroke="black" fill="none" stroke-linecap="round"></path><path d="M 100.133,89.195 C 103.713,89.234 103.705,89.260 107.273,89.516" stroke-width="4.097" stroke="black" fill="none" stroke-linecap="round"></path><path d="M 107.273,89.516 C 110.343,89.801 110.342,89.758 113.391,90.242" stroke-width="4.072" stroke="black" fill="none" stroke-linecap="round"></path><path d="M 113.391,90.242 C 116.193,90.624 116.183,90.647 118.953,91.207" stroke-width="4.176" stroke="black" fill="none" stroke-linecap="round"></path><path d="M 118.953,91.207 C 121.765,91.685 121.721,91.792 124.445,92.578" stroke-width="4.207" stroke="black" fill="none" stroke-linecap="round"></path><path d="M 124.445,92.578 C 128.902,93.885 128.790,94.027 133.004,95.891" stroke-width="4.341" stroke="black" fill="none" stroke-linecap="round"></path><path d="M 133.004,95.891 C 136.304,97.311 136.081,97.395 138.805,99.598" stroke-width="4.571" stroke="black" fill="none" stroke-linecap="round"></path><path d="M 138.805,99.598 C 141.527,101.879 141.181,101.770 142.758,104.809" stroke-width="4.838" stroke="black" fill="none" stroke-linecap="round"></path><path d="M 142.758,104.809 C 143.667,108.336 144.115,108.038 143.980,111.914" stroke-width="4.893" stroke="black" fill="none" stroke-linecap="round"></path><path d="M 143.980,111.914 C 144.399,115.393 144.279,115.318 143.980,118.773" stroke-width="4.742" stroke="black" fill="none" stroke-linecap="round"></path><path d="M 143.980,118.773 C 143.728,122.724 143.522,122.473 142.227,126.074" stroke-width="4.629" stroke="black" fill="none" stroke-linecap="round"></path><path d="M 142.227,126.074 C 140.869,128.884 141.060,128.677 138.645,130.680" stroke-width="4.734" stroke="black" fill="none" stroke-linecap="round"></path><path d="M 138.645,130.680 C 135.376,132.815 135.694,133.062 131.875,134.430" stroke-width="4.829" stroke="black" fill="none" stroke-linecap="round"></path><path d="M 131.875,134.430 C 129.207,135.675 129.253,135.639 126.398,136.328" stroke-width="4.813" stroke="black" fill="none" stroke-linecap="round"></path><path d="M 126.398,136.328 C 123.187,136.966 123.243,137.062 119.945,137.203" stroke-width="4.732" stroke="black" fill="none" stroke-linecap="round"></path><path d="M 119.945,137.203 C 116.323,137.299 116.338,137.468 112.699,137.332" stroke-width="4.647" stroke="black" fill="none" stroke-linecap="round"></path><path d="M 112.699,137.332 C 109.164,137.413 109.166,137.364 105.633,137.332" stroke-width="4.654" stroke="black" fill="none" stroke-linecap="round"></path><path d="M 105.633,137.332 C 102.487,137.831 102.654,137.264 99.680,137.035" stroke-width="4.731" stroke="black" fill="none" stroke-linecap="round"></path><path d="M 99.680,137.035 C 96.388,135.527 96.276,136.070 93.211,133.809" stroke-width="4.858" stroke="black" fill="none" stroke-linecap="round"></path><path d="M 93.211,133.809 C 88.334,131.538 90.810,132.510 88.523,131.000" stroke-width="5.005" stroke="black" fill="none" stroke-linecap="round"></path><path d="M 88.523,131.000 C 91.312,131.029 88.713,130.460 93.969,131.652" stroke-width="5.277" stroke="black" fill="none" stroke-linecap="round"></path><path d="M 93.969,131.652 C 97.338,132.781 97.412,132.460 100.723,133.863" stroke-width="4.286" stroke="black" fill="none" stroke-linecap="round"></path><path d="M 100.723,133.863 C 105.482,135.376 105.479,135.384 110.250,136.859" stroke-width="3.738" stroke="black" fill="none" stroke-linecap="round"></path><path d="M 110.250,136.859 C 115.225,138.542 115.259,138.417 120.277,139.945" stroke-width="3.552" stroke="black" fill="none" stroke-linecap="round"></path><path d="M 120.277,139.945 C 124.888,141.251 124.883,141.224 129.566,142.223" stroke-width="3.530" stroke="black" fill="none" stroke-linecap="round"></path><path d="M 129.566,142.223 C 133.229,142.831 133.199,142.977 136.898,143.398" stroke-width="3.791" stroke="black" fill="none" stroke-linecap="round"></path><path d="M 136.898,143.398 C 139.803,143.924 139.811,143.849 142.730,144.258" stroke-width="4.053" stroke="black" fill="none" stroke-linecap="round"></path><path d="M 142.730,144.258 C 146.814,145.380 146.686,144.709 150.664,144.969" stroke-width="4.376" stroke="black" fill="none" stroke-linecap="round"></path><path d="M 150.664,144.969 C 153.896,144.661 153.329,144.684 155.762,142.867" stroke-width="4.920" stroke="black" fill="none" stroke-linecap="round"></path><path d="M 155.762,142.867 C 157.391,140.187 157.868,140.842 158.609,137.332" stroke-width="4.970" stroke="black" fill="none" stroke-linecap="round"></path><path d="M 158.609,137.332 C 159.848,134.580 159.775,134.601 160.531,131.695" stroke-width="4.825" stroke="black" fill="none" stroke-linecap="round"></path><path d="M 160.531,131.695 C 161.180,128.561 161.262,128.612 161.438,125.395" stroke-width="4.764" stroke="black" fill="none" stroke-linecap="round"></path><path d="M 161.438,125.395 C 161.553,122.020 161.711,122.036 161.594,118.645" stroke-width="4.697" stroke="black" fill="none" stroke-linecap="round"></path><path d="M 161.594,118.645 C 161.742,112.587 161.631,115.614 161.594,112.582" stroke-width="4.916" stroke="black" fill="none" stroke-linecap="round"></path><path d="M 161.594,112.582 C 160.674,115.664 161.445,112.577 161.000,118.625" stroke-width="5.300" stroke="black" fill="none" stroke-linecap="round"></path><path d="M 161.000,118.625 C 161.874,121.966 161.370,121.986 162.984,125.227" stroke-width="4.261" stroke="black" fill="none" stroke-linecap="round"></path><path d="M 162.984,125.227 C 164.039,128.359 164.046,128.345 165.344,131.383" stroke-width="4.113" stroke="black" fill="none" stroke-linecap="round"></path><path d="M 165.344,131.383 C 166.537,134.094 166.513,134.093 167.934,136.695" stroke-width="4.156" stroke="black" fill="none" stroke-linecap="round"></path><path d="M 167.934,136.695 C 169.096,139.085 169.176,139.010 170.621,141.215" stroke-width="4.210" stroke="black" fill="none" stroke-linecap="round"></path><path d="M 170.621,141.215 C 172.733,145.757 172.254,143.495 174.250,145.516" stroke-width="4.768" stroke="black" fill="none" stroke-linecap="round"></path><path d="M 174.250,145.516 C 176.115,143.042 175.836,145.263 176.828,140.227" stroke-width="5.226" stroke="black" fill="none" stroke-linecap="round"></path><path d="M 176.828,140.227 C 177.527,135.418 178.005,135.579 178.031,130.590" stroke-width="4.577" stroke="black" fill="none" stroke-linecap="round"></path><path d="M 178.031,130.590 C 178.369,127.426 178.361,127.432 178.496,124.254" stroke-width="4.177" stroke="black" fill="none" stroke-linecap="round"></path><path d="M 178.496,124.254 C 178.496,121.625 178.601,121.629 178.496,118.996" stroke-width="4.260" stroke="black" fill="none" stroke-linecap="round"></path><path d="M 178.496,118.996 C 178.333,112.330 178.496,115.777 178.496,112.559" stroke-width="4.578" stroke="black" fill="none" stroke-linecap="round"></path><path d="M 178.496,112.559 C 178.489,116.349 178.685,112.824 179.199,119.984" stroke-width="5.175" stroke="black" fill="none" stroke-linecap="round"></path><path d="M 179.199,119.984 C 179.971,122.544 179.708,122.585 180.934,125.031" stroke-width="4.515" stroke="black" fill="none" stroke-linecap="round"></path><path d="M 180.934,125.031 C 182.071,127.767 182.002,127.793 183.262,130.480" stroke-width="4.220" stroke="black" fill="none" stroke-linecap="round"></path><path d="M 183.262,130.480 C 184.342,133.074 184.390,133.051 185.570,135.598" stroke-width="4.226" stroke="black" fill="none" stroke-linecap="round"></path><path d="M 185.570,135.598 C 186.543,141.273 187.294,139.139 189.164,142.609" stroke-width="4.442" stroke="black" fill="none" stroke-linecap="round"></path><path d="M 189.164,142.609 C 193.179,142.558 191.219,143.658 194.922,140.367" stroke-width="5.098" stroke="black" fill="none" stroke-linecap="round"></path><path d="M 194.922,140.367 C 196.625,136.247 197.413,137.236 197.633,131.965" stroke-width="4.617" stroke="black" fill="none" stroke-linecap="round"></path><path d="M 197.633,131.965 C 198.386,127.908 198.572,127.971 198.816,123.816" stroke-width="3.945" stroke="black" fill="none" stroke-linecap="round"></path><path d="M 198.816,123.816 C 199.340,118.585 199.366,118.596 199.594,113.340" stroke-width="3.605" stroke="black" fill="none" stroke-linecap="round"></path><path d="M 199.594,113.340 C 199.772,107.979 199.853,107.985 199.844,102.617" stroke-width="3.494" stroke="black" fill="none" stroke-linecap="round"></path><path d="M 199.844,102.617 C 199.844,98.594 199.897,98.594 199.844,94.570" stroke-width="3.715" stroke="black" fill="none" stroke-linecap="round"></path><path d="M 199.844,94.570 C 199.862,91.432 199.844,91.432 199.844,88.293" stroke-width="3.937" stroke="black" fill="none" stroke-linecap="round"></path><path d="M 199.844,88.293 C 200.111,85.259 199.827,85.289 199.773,82.285" stroke-width="4.088" stroke="black" fill="none" stroke-linecap="round"></path><path d="M 199.773,82.285 C 199.420,77.928 199.291,78.037 198.203,73.848" stroke-width="4.344" stroke="black" fill="none" stroke-linecap="round"></path><path d="M 198.203,73.848 C 196.848,68.264 197.334,70.933 195.602,68.297" stroke-width="4.790" stroke="black" fill="none" stroke-linecap="round"></path><path d="M 195.602,68.297 C 193.200,71.002 194.346,68.330 193.199,73.980" stroke-width="5.238" stroke="black" fill="none" stroke-linecap="round"></path><path d="M 193.199,73.980 C 194.245,80.873 193.197,80.707 195.594,87.707" stroke-width="3.525" stroke="black" fill="none" stroke-linecap="round"></path><path d="M 195.594,87.707 C 197.370,96.096 197.253,96.117 199.215,104.469" stroke-width="2.984" stroke="black" fill="none" stroke-linecap="round"></path><path d="M 199.215,104.469 C 200.999,112.396 200.963,112.404 202.781,120.324" stroke-width="2.846" stroke="black" fill="none" stroke-linecap="round"></path><path d="M 202.781,120.324 C 204.210,126.829 204.242,126.822 205.699,133.320" stroke-width="3.055" stroke="black" fill="none" stroke-linecap="round"></path><path d="M 205.699,133.320 C 206.763,137.773 206.723,137.782 207.809,142.230" stroke-width="3.452" stroke="black" fill="none" stroke-linecap="round"></path><path d="M 207.809,142.230 C 208.426,145.082 208.474,145.070 209.121,147.914" stroke-width="3.895" stroke="black" fill="none" stroke-linecap="round"></path><path d="M 209.121,147.914 C 209.782,150.563 209.772,150.564 210.500,153.195" stroke-width="4.516" stroke="black" fill="none" stroke-linecap="round"></path><path d="M 210.500,153.195 C 211.488,158.436 211.194,155.738 211.945,158.266" stroke-width="4.980" stroke="black" fill="none" stroke-linecap="round"></path><path d="M 211.945,158.266 C 212.108,155.365 212.449,158.078 212.422,152.480" stroke-width="5.319" stroke="black" fill="none" stroke-linecap="round"></path><path d="M 212.422,152.480 C 212.742,149.927 212.700,149.923 213.129,147.383" stroke-width="4.527" stroke="black" fill="none" stroke-linecap="round"></path><path d="M 213.129,147.383 C 213.494,144.884 213.508,144.888 213.953,142.402" stroke-width="4.392" stroke="black" fill="none" stroke-linecap="round"></path><path d="M 213.953,142.402 C 214.283,139.032 214.559,139.128 215.258,135.871" stroke-width="4.606" stroke="black" fill="none" stroke-linecap="round"></path><path d="M 215.258,135.871 C 215.871,133.102 216.029,133.372 217.445,131.082" stroke-width="5.012" stroke="black" fill="none" stroke-linecap="round"></path><path d="M 217.445,131.082 C 219.251,128.141 219.012,129.072 221.539,127.813" stroke-width="5.384" stroke="black" fill="none" stroke-linecap="round"></path><path d="M 221.539,127.813 C 224.963,128.005 224.196,127.432 227.336,129.664" stroke-width="5.120" stroke="black" fill="none" stroke-linecap="round"></path><path d="M 227.336,129.664 C 229.810,131.674 229.547,131.210 230.707,134.223" stroke-width="5.224" stroke="black" fill="none" stroke-linecap="round"></path><path d="M 230.707,134.223 C 231.645,137.192 231.556,136.635 230.828,139.586" stroke-width="5.304" stroke="black" fill="none" stroke-linecap="round"></path><path d="M 230.828,139.586 C 229.181,141.938 229.957,142.140 227.332,144.117" stroke-width="5.214" stroke="black" fill="none" stroke-linecap="round"></path><path d="M 227.332,144.117 C 225.963,146.503 225.712,146.026 223.891,147.762" stroke-width="5.277" stroke="black" fill="none" stroke-linecap="round"></path><path d="M 223.891,147.762 C 221.326,148.921 221.615,149.144 218.637,149.398" stroke-width="5.317" stroke="black" fill="none" stroke-linecap="round"></path><path d="M 218.637,149.398 C 212.673,149.718 215.666,149.925 212.570,149.770" stroke-width="5.307" stroke="black" fill="none" stroke-linecap="round"></path><path d="M 212.570,149.770 C 215.436,149.945 212.474,149.818 218.238,149.598" stroke-width="5.458" stroke="black" fill="none" stroke-linecap="round"></path><path d="M 218.238,149.598 C 221.252,149.139 221.235,149.226 224.168,148.332" stroke-width="4.960" stroke="black" fill="none" stroke-linecap="round"></path><path d="M 224.168,148.332 C 226.917,147.492 226.927,147.569 229.590,146.457" stroke-width="4.841" stroke="black" fill="none" stroke-linecap="round"></path><path d="M 229.590,146.457 C 232.178,145.797 231.980,145.531 234.293,144.410" stroke-width="4.860" stroke="black" fill="none" stroke-linecap="round"></path><path d="M 234.293,144.410 C 236.723,142.987 236.471,142.982 238.176,140.828" stroke-width="4.866" stroke="black" fill="none" stroke-linecap="round"></path><path d="M 238.176,140.828 C 240.719,136.739 240.788,136.947 242.422,132.332" stroke-width="4.506" stroke="black" fill="none" stroke-linecap="round"></path><path d="M 242.422,132.332 C 243.664,128.347 243.915,128.468 244.566,124.285" stroke-width="3.969" stroke="black" fill="none" stroke-linecap="round"></path><path d="M 244.566,124.285 C 245.597,119.309 245.668,119.331 246.430,114.301" stroke-width="3.584" stroke="black" fill="none" stroke-linecap="round"></path><path d="M 246.430,114.301 C 247.152,109.868 247.166,109.874 247.703,105.414" stroke-width="3.651" stroke="black" fill="none" stroke-linecap="round"></path><path d="M 247.703,105.414 C 248.157,101.898 248.138,101.901 248.402,98.367" stroke-width="3.821" stroke="black" fill="none" stroke-linecap="round"></path><path d="M 248.402,98.367 C 248.564,95.306 248.614,95.312 248.617,92.242" stroke-width="4.035" stroke="black" fill="none" stroke-linecap="round"></path><path d="M 248.617,92.242 C 248.631,89.115 248.671,89.116 248.617,85.988" stroke-width="4.089" stroke="black" fill="none" stroke-linecap="round"></path><path d="M 248.617,85.988 C 248.719,82.619 248.602,82.625 248.559,79.262" stroke-width="4.048" stroke="black" fill="none" stroke-linecap="round"></path><path d="M 248.559,79.262 C 248.431,75.420 248.376,75.439 247.930,71.629" stroke-width="3.874" stroke="black" fill="none" stroke-linecap="round"></path><path d="M 247.930,71.629 C 247.379,67.905 247.437,67.909 246.570,64.238" stroke-width="3.893" stroke="black" fill="none" stroke-linecap="round"></path><path d="M 246.570,64.238 C 246.025,61.406 245.955,61.446 245.082,58.711" stroke-width="4.108" stroke="black" fill="none" stroke-linecap="round"></path><path d="M 245.082,58.711 C 244.378,52.839 243.980,55.561 242.480,52.547" stroke-width="4.490" stroke="black" fill="none" stroke-linecap="round"></path><path d="M 242.480,52.547 C 238.977,54.522 240.423,52.230 237.172,57.492" stroke-width="5.049" stroke="black" fill="none" stroke-linecap="round"></path><path d="M 237.172,57.492 C 236.289,60.641 235.547,60.166 235.621,63.836" stroke-width="4.317" stroke="black" fill="none" stroke-linecap="round"></path><path d="M 235.621,63.836 C 234.539,68.257 234.695,68.268 233.984,72.746" stroke-width="3.842" stroke="black" fill="none" stroke-linecap="round"></path><path d="M 233.984,72.746 C 233.372,78.359 233.295,78.333 233.133,83.988" stroke-width="3.446" stroke="black" fill="none" stroke-linecap="round"></path><path d="M 233.133,83.988 C 233.010,90.381 232.862,90.373 232.965,96.773" stroke-width="3.278" stroke="black" fill="none" stroke-linecap="round"></path><path d="M 232.965,96.773 C 232.965,102.398 232.926,102.398 232.965,108.023" stroke-width="3.352" stroke="black" fill="none" stroke-linecap="round"></path><path d="M 232.965,108.023 C 232.866,112.323 232.965,112.320 232.965,116.617" stroke-width="3.561" stroke="black" fill="none" stroke-linecap="round"></path><path d="M 232.965,116.617 C 232.961,120.072 233.044,120.053 233.320,123.484" stroke-width="3.861" stroke="black" fill="none" stroke-linecap="round"></path><path d="M 233.320,123.484 C 233.636,126.015 233.586,126.005 234.215,128.484" stroke-width="4.178" stroke="black" fill="none" stroke-linecap="round"></path><path d="M 234.215,128.484 C 234.880,131.354 234.884,131.339 235.816,134.133" stroke-width="4.579" stroke="black" fill="none" stroke-linecap="round"></path><path d="M 235.816,134.133 C 237.173,136.920 236.794,137.036 238.043,139.848" stroke-width="5.021" stroke="black" fill="none" stroke-linecap="round"></path><path d="M 238.043,139.848 C 238.550,145.220 238.759,142.254 238.988,144.801" stroke-width="5.345" stroke="black" fill="none" stroke-linecap="round"></path><path d="M 238.988,144.801 C 239.245,141.236 239.602,144.214 240.148,137.836" stroke-width="5.231" stroke="black" fill="none" stroke-linecap="round"></path><path d="M 240.148,137.836 C 241.536,133.442 241.327,133.404 243.152,129.137" stroke-width="4.641" stroke="black" fill="none" stroke-linecap="round"></path><path d="M 243.152,129.137 C 243.370,125.051 244.212,126.315 245.500,123.582" stroke-width="4.721" stroke="black" fill="none" stroke-linecap="round"></path><path d="M 245.500,123.582 C 249.071,122.260 247.831,121.973 252.074,122.980" stroke-width="5.169" stroke="black" fill="none" stroke-linecap="round"></path><path d="M 252.074,122.980 C 254.889,124.126 254.561,123.577 256.480,126.215" stroke-width="5.100" stroke="black" fill="none" stroke-linecap="round"></path><path d="M 256.480,126.215 C 257.833,128.772 258.133,128.384 258.563,131.496" stroke-width="5.214" stroke="black" fill="none" stroke-linecap="round"></path><path d="M 258.563,131.496 C 258.450,134.493 259.290,134.210 259.395,137.090" stroke-width="5.250" stroke="black" fill="none" stroke-linecap="round"></path><path d="M 259.395,137.090 C 260.165,140.325 260.235,139.399 262.133,141.309" stroke-width="5.350" stroke="black" fill="none" stroke-linecap="round"></path><path d="M 262.133,141.309 C 266.052,142.702 264.286,142.385 267.637,141.211" stroke-width="5.403" stroke="black" fill="none" stroke-linecap="round"></path><path d="M 267.637,141.211 C 268.726,138.004 269.554,139.407 269.137,134.719" stroke-width="5.268" stroke="black" fill="none" stroke-linecap="round"></path><path d="M 269.137,134.719 C 269.162,131.965 269.476,132.004 269.137,129.211" stroke-width="5.214" stroke="black" fill="none" stroke-linecap="round"></path><path d="M 269.137,129.211 C 268.940,123.120 269.110,126.303 269.031,123.395" stroke-width="5.187" stroke="black" fill="none" stroke-linecap="round"></path><path d="M 269.031,123.395 C 268.633,127.114 269.141,123.727 269.539,130.426" stroke-width="5.375" stroke="black" fill="none" stroke-linecap="round"></path><path d="M 269.539,130.426 C 270.221,133.621 270.205,132.862 272.176,134.891" stroke-width="5.321" stroke="black" fill="none" stroke-linecap="round"></path><path d="M 272.176,134.891 C 276.018,136.827 274.192,136.201 277.480,135.586" stroke-width="5.360" stroke="black" fill="none" stroke-linecap="round"></path><path d="M 277.480,135.586 C 278.100,132.607 279.137,134.180 278.414,129.598" stroke-width="5.352" stroke="black" fill="none" stroke-linecap="round"></path><path d="M 278.414,129.598 C 278.615,126.836 278.701,126.850 278.684,124.070" stroke-width="5.147" stroke="black" fill="none" stroke-linecap="round"></path><path d="M 278.684,124.070 C 279.867,120.723 278.749,121.431 278.684,118.789" stroke-width="5.105" stroke="black" fill="none" stroke-linecap="round"></path><path d="M 278.684,118.789 C 276.431,116.867 277.457,116.784 273.863,116.191" stroke-width="5.350" stroke="black" fill="none" stroke-linecap="round"></path><path d="M 273.863,116.191 C 270.380,114.953 271.497,115.568 268.816,116.191" stroke-width="5.266" stroke="black" fill="none" stroke-linecap="round"></path><path d="M 268.816,116.191 C 267.780,118.660 267.210,117.463 267.523,121.211" stroke-width="5.350" stroke="black" fill="none" stroke-linecap="round"></path><path d="M 267.523,121.211 C 267.332,124.063 267.245,123.978 267.746,126.828" stroke-width="4.957" stroke="black" fill="none" stroke-linecap="round"></path><path d="M 267.746,126.828 C 268.190,130.092 268.222,130.006 269.305,133.098" stroke-width="4.777" stroke="black" fill="none" stroke-linecap="round"></path><path d="M 269.305,133.098 C 269.771,136.663 270.202,135.516 271.770,137.676" stroke-width="5.079" stroke="black" fill="none" stroke-linecap="round"></path><path d="M 271.770,137.676 C 275.277,138.430 274.312,138.965 278.387,137.703" stroke-width="5.102" stroke="black" fill="none" stroke-linecap="round"></path><path d="M 278.387,137.703 C 282.118,137.022 280.832,137.131 282.879,135.078" stroke-width="5.184" stroke="black" fill="none" stroke-linecap="round"></path><path d="M 282.879,135.078 C 282.512,132.236 283.700,132.979 281.551,129.617" stroke-width="5.311" stroke="black" fill="none" stroke-linecap="round"></path><path d="M 281.551,129.617 C 278.906,124.638 280.686,127.262 279.227,125.129" stroke-width="5.168" stroke="black" fill="none" stroke-linecap="round"></path><path d="M 279.227,125.129 C 281.047,128.766 279.740,125.915 283.219,132.172" stroke-width="5.332" stroke="black" fill="none" stroke-linecap="round"></path><path d="M 283.219,132.172 C 284.259,134.914 284.573,134.295 286.277,136.188" stroke-width="5.021" stroke="black" fill="none" stroke-linecap="round"></path><path d="M 286.277,136.188 C 289.568,138.445 288.603,137.655 291.906,137.652" stroke-width="5.273" stroke="black" fill="none" stroke-linecap="round"></path><path d="M 291.906,137.652 C 294.176,135.427 294.434,136.795 296.008,132.887" stroke-width="5.068" stroke="black" fill="none" stroke-linecap="round"></path><path d="M 296.008,132.887 C 297.892,130.509 297.725,130.505 299.004,127.809" stroke-width="4.857" stroke="black" fill="none" stroke-linecap="round"></path><path d="M 299.004,127.809 C 300.060,124.768 300.207,124.886 300.637,121.641" stroke-width="4.756" stroke="black" fill="none" stroke-linecap="round"></path><path d="M 300.637,121.641 C 301.103,118.586 301.193,118.622 301.270,115.516" stroke-width="4.775" stroke="black" fill="none" stroke-linecap="round"></path><path d="M 301.270,115.516 C 301.496,112.713 301.420,112.740 301.270,109.949" stroke-width="4.816" stroke="black" fill="none" stroke-linecap="round"></path><path d="M 301.270,109.949 C 300.811,104.808 301.065,107.455 300.406,105.000" stroke-width="5.185" stroke="black" fill="none" stroke-linecap="round"></path><path d="M 300.406,105.000 C 299.061,108.037 299.936,105.224 299.520,110.781" stroke-width="5.385" stroke="black" fill="none" stroke-linecap="round"></path><path d="M 299.520,110.781 C 300.369,113.913 299.991,113.603 302.266,116.133" stroke-width="5.333" stroke="black" fill="none" stroke-linecap="round"></path><path d="M 302.266,116.133 C 304.502,117.813 304.027,118.194 306.836,119.344" stroke-width="4.956" stroke="black" fill="none" stroke-linecap="round"></path><path d="M 306.836,119.344 C 309.578,120.831 309.431,121.046 312.125,122.598" stroke-width="4.989" stroke="black" fill="none" stroke-linecap="round"></path><path d="M 312.125,122.598 C 314.555,124.025 314.367,124.153 316.414,125.988" stroke-width="5.190" stroke="black" fill="none" stroke-linecap="round"></path><path d="M 316.414,125.988 C 318.683,127.873 318.164,127.836 319.344,130.219" stroke-width="5.264" stroke="black" fill="none" stroke-linecap="round"></path><path d="M 319.344,130.219 C 320.450,133.769 320.022,132.627 319.094,135.496" stroke-width="5.345" stroke="black" fill="none" stroke-linecap="round"></path><path d="M 319.094,135.496 C 314.181,138.042 317.618,137.375 313.680,137.430" stroke-width="5.329" stroke="black" fill="none" stroke-linecap="round"></path><path d="M 313.680,137.430 C 315.296,135.166 313.197,136.839 317.125,133.090" stroke-width="5.475" stroke="black" fill="none" stroke-linecap="round"></path><path d="M 317.125,133.090 C 319.144,131.448 318.816,131.170 320.719,129.438" stroke-width="5.036" stroke="black" fill="none" stroke-linecap="round"></path><path d="M 320.719,129.438 C 323.820,125.583 323.734,125.587 326.305,121.367" stroke-width="4.547" stroke="black" fill="none" stroke-linecap="round"></path><path d="M 326.305,121.367 C 328.606,117.442 328.590,117.489 330.258,113.250" stroke-width="3.955" stroke="black" fill="none" stroke-linecap="round"></path><path d="M 330.258,113.250 C 332.974,106.604 332.871,106.618 334.836,99.719" stroke-width="3.280" stroke="black" fill="none" stroke-linecap="round"></path><path d="M 334.836,99.719 C 337.442,89.802 337.504,89.852 339.316,79.746" stroke-width="2.734" stroke="black" fill="none" stroke-linecap="round"></path><path d="M 339.316,79.746 C 341.739,66.808 341.724,66.830 343.398,53.773" stroke-width="2.280" stroke="black" fill="none" stroke-linecap="round"></path><path d="M 343.398,53.773 C 344.957,41.204 344.995,41.230 345.828,28.590" stroke-width="2.208" stroke="black" fill="none" stroke-linecap="round"></path><path d="M 345.828,28.590 C 346.325,18.465 346.526,18.485 346.535,8.336" stroke-width="2.393" stroke="black" fill="none" stroke-linecap="round"></path><path d="M 346.535,8.336 C 346.866,1.380 346.679,1.403 346.535,-5.535" stroke-width="2.796" stroke="black" fill="none" stroke-linecap="round"></path><path d="M 346.535,-5.535 C 346.455,-10.088 346.322,-9.993 345.445,-14.410" stroke-width="3.365" stroke="black" fill="none" stroke-linecap="round"></path><path d="M 345.445,-14.410 C 344.604,-17.928 344.648,-17.821 342.922,-21.000" stroke-width="3.770" stroke="black" fill="none" stroke-linecap="round"></path><path d="M 342.922,-21.000 C 340.801,-24.950 340.838,-24.805 337.914,-28.164" stroke-width="4.220" stroke="black" fill="none" stroke-linecap="round"></path><path d="M 337.914,-28.164 C 334.611,-32.691 336.024,-30.268 333.367,-31.637" stroke-width="4.779" stroke="black" fill="none" stroke-linecap="round"></path><path d="M 333.367,-31.637 C 332.030,-27.213 331.376,-29.949 331.445,-22.680" stroke-width="4.968" stroke="black" fill="none" stroke-linecap="round"></path><path d="M 331.445,-22.680 C 330.616,-15.136 330.477,-15.178 330.262,-7.566" stroke-width="3.381" stroke="black" fill="none" stroke-linecap="round"></path><path d="M 330.262,-7.566 C 329.779,4.470 329.700,4.460 329.613,16.512" stroke-width="2.567" stroke="black" fill="none" stroke-linecap="round"></path><path d="M 329.613,16.512 C 329.451,31.625 329.406,31.623 329.516,46.738" stroke-width="2.099" stroke="black" fill="none" stroke-linecap="round"></path><path d="M 329.516,46.738 C 329.228,62.603 329.584,62.582 329.879,78.426" stroke-width="2.003" stroke="black" fill="none" stroke-linecap="round"></path><path d="M 329.879,78.426 C 330.298,91.500 330.414,91.445 331.887,104.422" stroke-width="2.096" stroke="black" fill="none" stroke-linecap="round"></path><path d="M 331.887,104.422 C 333.564,114.139 333.089,114.194 335.461,123.813" stroke-width="2.428" stroke="black" fill="none" stroke-linecap="round"></path><path d="M 335.461,123.813 C 336.950,130.790 336.834,130.813 338.426,137.770" stroke-width="2.837" stroke="black" fill="none" stroke-linecap="round"></path><path d="M 338.426,137.770 C 339.287,141.942 339.307,141.938 340.176,146.109" stroke-width="3.418" stroke="black" fill="none" stroke-linecap="round"></path><path d="M 340.176,146.109 C 340.701,148.957 340.779,148.937 341.410,151.758" stroke-width="3.888" stroke="black" fill="none" stroke-linecap="round"></path><path d="M 341.410,151.758 C 342.188,154.185 342.035,154.225 342.844,156.645" stroke-width="4.529" stroke="black" fill="none" stroke-linecap="round"></path><path d="M 342.844,156.645 C 343.521,162.604 343.514,159.161 344.063,161.711" stroke-width="4.916" stroke="black" fill="none" stroke-linecap="round"></path><path d="M 344.063,161.711 C 345.266,156.469 345.179,159.870 346.160,151.176" stroke-width="5.183" stroke="black" fill="none" stroke-linecap="round"></path><path d="M 346.160,151.176 C 346.817,146.001 347.028,146.036 347.586,140.844" stroke-width="3.866" stroke="black" fill="none" stroke-linecap="round"></path><path d="M 347.586,140.844 C 348.301,136.193 348.280,136.191 349.086,131.555" stroke-width="3.837" stroke="black" fill="none" stroke-linecap="round"></path><path d="M 349.086,131.555 C 349.554,128.173 349.654,128.197 350.293,124.852" stroke-width="3.961" stroke="black" fill="none" stroke-linecap="round"></path><path d="M 350.293,124.852 C 350.195,118.852 351.078,121.324 352.133,117.855" stroke-width="4.396" stroke="black" fill="none" stroke-linecap="round"></path><path d="M 352.133,117.855 C 355.711,118.796 353.828,116.983 357.559,121.113" stroke-width="5.048" stroke="black" fill="none" stroke-linecap="round"></path><path d="M 357.559,121.113 C 358.552,124.106 359.400,123.423 359.512,127.109" stroke-width="4.555" stroke="black" fill="none" stroke-linecap="round"></path><path d="M 359.512,127.109 C 360.311,129.819 360.371,129.799 361.195,132.500" stroke-width="4.269" stroke="black" fill="none" stroke-linecap="round"></path><path d="M 361.195,132.500 C 361.392,137.841 362.295,135.836 363.480,139.145" stroke-width="4.521" stroke="black" fill="none" stroke-linecap="round"></path><path d="M 363.480,139.145 C 366.498,138.739 365.132,140.175 368.676,137.168" stroke-width="5.082" stroke="black" fill="none" stroke-linecap="round"></path><path d="M 368.676,137.168 C 370.540,135.070 370.869,135.585 372.223,132.836" stroke-width="4.455" stroke="black" fill="none" stroke-linecap="round"></path><path d="M 372.223,132.836 C 373.968,130.635 373.901,130.607 375.398,128.242" stroke-width="4.298" stroke="black" fill="none" stroke-linecap="round"></path><path d="M 375.398,128.242 C 379.572,124.349 377.460,124.793 379.207,121.152" stroke-width="4.452" stroke="black" fill="none" stroke-linecap="round"></path><path d="M 379.207,121.152 C 377.216,117.119 378.877,118.265 374.008,116.074" stroke-width="5.011" stroke="black" fill="none" stroke-linecap="round"></path><path d="M 374.008,116.074 C 368.813,116.074 369.421,114.580 363.617,116.074" stroke-width="3.841" stroke="black" fill="none" stroke-linecap="round"></path><path d="M 363.617,116.074 C 354.859,115.917 354.861,116.074 346.105,116.074" stroke-width="2.952" stroke="black" fill="none" stroke-linecap="round"></path><path d="M 346.105,116.074 C 334.287,116.064 334.308,116.286 322.516,116.813" stroke-width="2.507" stroke="black" fill="none" stroke-linecap="round"></path><path d="M 322.516,116.813 C 308.602,117.911 308.596,117.697 294.723,119.340" stroke-width="2.230" stroke="black" fill="none" stroke-linecap="round"></path><path d="M 294.723,119.340 C 280.032,121.227 279.995,120.856 265.301,122.703" stroke-width="2.044" stroke="black" fill="none" stroke-linecap="round"></path><path d="M 265.301,122.703 C 250.507,124.217 250.511,124.186 235.680,125.258" stroke-width="2.046" stroke="black" fill="none" stroke-linecap="round"></path><path d="M 235.680,125.258 C 221.508,126.222 221.517,126.252 207.320,126.773" stroke-width="2.088" stroke="black" fill="none" stroke-linecap="round"></path><path d="M 207.320,126.773 C 195.169,127.156 195.176,127.245 183.016,127.305" stroke-width="2.187" stroke="black" fill="none" stroke-linecap="round"></path><path d="M 183.016,127.305 C 173.387,127.305 173.388,127.422 163.758,127.305" stroke-width="2.484" stroke="black" fill="none" stroke-linecap="round"></path><path d="M 163.758,127.305 C 156.045,127.305 156.045,127.305 148.332,127.305" stroke-width="2.792" stroke="black" fill="none" stroke-linecap="round"></path><path d="M 148.332,127.305 C 142.355,127.305 142.355,127.305 136.379,127.305" stroke-width="3.078" stroke="black" fill="none" stroke-linecap="round"></path><path d="M 136.379,127.305 C 131.637,127.305 131.637,127.305 126.895,127.305" stroke-width="3.433" stroke="black" fill="none" stroke-linecap="round"></path><path d="M 126.895,127.305 C 122.963,127.305 122.963,127.305 119.031,127.305" stroke-width="3.712" stroke="black" fill="none" stroke-linecap="round"></path><path d="M 119.031,127.305 C 116.121,127.305 116.121,127.305 113.211,127.305" stroke-width="3.991" stroke="black" fill="none" stroke-linecap="round"></path><path d="M 113.211,127.305 C 110.188,127.305 110.188,127.305 107.164,127.305" stroke-width="4.101" stroke="black" fill="none" stroke-linecap="round"></path><path d="M 107.164,127.305 C 103.873,127.305 103.873,127.305 100.582,127.305" stroke-width="4.069" stroke="black" fill="none" stroke-linecap="round"></path><path d="M 100.582,127.305 C 97.563,127.305 97.563,127.305 94.543,127.305" stroke-width="4.079" stroke="black" fill="none" stroke-linecap="round"></path><path d="M 94.543,127.305 C 91.088,127.305 91.088,127.305 87.633,127.305" stroke-width="4.023" stroke="black" fill="none" stroke-linecap="round"></path><path d="M 87.633,127.305 C 83.928,127.305 83.928,127.305 80.223,127.305" stroke-width="3.896" stroke="black" fill="none" stroke-linecap="round"></path><path d="M 80.223,127.305 C 76.378,127.249 76.379,127.305 72.535,127.305" stroke-width="3.880" stroke="black" fill="none" stroke-linecap="round"></path><path d="M 72.535,127.305 C 68.172,127.431 68.171,127.368 63.809,127.543" stroke-width="3.764" stroke="black" fill="none" stroke-linecap="round"></path><path d="M 63.809,127.543 C 58.919,127.717 58.918,127.669 54.027,127.781" stroke-width="3.626" stroke="black" fill="none" stroke-linecap="round"></path><path d="M 54.027,127.781 C 49.877,127.781 49.878,127.836 45.727,127.781" stroke-width="3.680" stroke="black" fill="none" stroke-linecap="round"></path><path d="M 45.727,127.781 C 42.361,127.781 42.361,127.781 38.996,127.781" stroke-width="3.918" stroke="black" fill="none" stroke-linecap="round"></path><path d="M 38.996,127.781 C 36.023,127.781 36.023,127.781 33.051,127.781" stroke-width="4.044" stroke="black" fill="none" stroke-linecap="round"></path></svg>